<svg width="48" height="48" viewBox="0 0 48 48" fill="none" xmlns="http://www.w3.org/2000/svg">
<path d="M41.9701 24.972C41.7826 28.4443 40.5934 31.788 38.5462 34.5988C36.499 37.4097 33.6814 39.5674 30.4341 40.8111C27.1868 42.0548 23.6487 42.3312 20.2476 41.6071C16.8465 40.8829 13.728 39.1891 11.269 36.7303C8.80998 34.2716 7.11582 31.1532 6.39128 27.7522C5.66674 24.3512 5.94284 20.8131 7.1862 17.5656C8.42957 14.3182 10.587 11.5004 13.3976 9.45288C16.2082 7.40537 19.5518 6.21581 23.0241 6.028C23.8341 5.984 24.2581 6.948 23.8281 7.634C22.3898 9.93511 21.774 12.6557 22.081 15.3519C22.3881 18.0481 23.5999 20.5606 25.5187 22.4794C27.4375 24.3982 29.95 25.61 32.6462 25.917C35.3423 26.2241 38.0629 25.6082 40.364 24.17C41.052 23.74 42.0141 24.162 41.9701 24.972Z" stroke="black" stroke-width="4" stroke-linecap="round" stroke-linejoin="round"/>
</svg>
